<svg xmlns="http://www.w3.org/2000/svg" width="19" height="16" viewBox="0 0 19 16"><path fill="#323232" d="M13.74 0c-.44 0-.88.07-1.33.22-.45.15-.86.35-1.25.61a8.88 8.88 0 0 0-1.79 1.42A9.01 9.01 0 0 0 7.57.83 5 5 0 0 0 5 0C3.44 0 2.21.43 1.33 1.29A4.75 4.75 0 0 0 0 4.87a6.25 6.25 0 0 0 1.52 3.72 6.83 6.83 0 0 0 .86.95l6.53 6.27c.12.13.27.19.46.19.18 0 .33-.06.46-.19l6.51-6.25c1.59-1.59 2.39-3.15 2.39-4.69 0-1.52-.44-2.72-1.33-3.58A5.01 5.01 0 0 0 13.74 0zM9.37 14.41L3.29 8.57c-1.3-1.3-1.95-2.53-1.95-3.7 0-.56.07-1.05.22-1.48.15-.44.34-.78.58-1.03a3.5 3.5 0 0 1 1.83-.94c.32-.06.66-.09 1.03-.09.36 0 .75.09 1.17.27.42.18.8.4 1.15.67a9.6 9.6 0 0 1 1.53 1.39c.13.15.3.23.52.23.21 0 .38-.08.51-.23a9.38 9.38 0 0 1 1.53-1.39c.35-.27.74-.49 1.15-.67a3 3 0 0 1 1.18-.27c.36 0 .7.03 1.02.09a3.5 3.5 0 0 1 1.83.94c.24.25.43.59.58 1.03.15.43.22.92.22 1.48 0 1.17-.65 2.41-1.96 3.71z"/></svg>