<svg xmlns="http://www.w3.org/2000/svg" width="20" height="20" viewBox="0 0 20 20"><path fill="#9b9b9b" d="M15.43 13.26A8.44 8.44 0 0 0 5.17.67a8.4 8.4 0 0 0-4.5 11.08 8.3 8.3 0 0 0 4.5 4.51 8.44 8.44 0 0 0 8.09-.83l4.12 4.11c.29.31.65.46 1.08.46.42 0 .78-.15 1.08-.46.31-.3.46-.66.46-1.08 0-.42-.15-.78-.44-1.08zm-6.97.59a5.19 5.19 0 0 1-3.8-1.58 5.19 5.19 0 0 1-1.58-3.81c0-1.48.52-2.75 1.58-3.8a5.15 5.15 0 0 1 3.8-1.58c1.48 0 2.75.52 3.81 1.58a5.19 5.19 0 0 1 1.58 3.8c0 1.48-.53 2.75-1.58 3.81a5.23 5.23 0 0 1-3.81 1.58z"/></svg>